<svg width="20" height="20" viewBox="0 0 20 20" fill="none" xmlns="http://www.w3.org/2000/svg">
<path fill-rule="evenodd" clip-rule="evenodd" d="M7.68111 2.7863C6.64622 1.75141 4.96833 1.75141 3.93344 2.7863L2.79374 3.926C1.75885 4.96089 1.75886 6.63877 2.79375 7.67366L3.93344 8.81336C4.96833 9.84825 6.64622 9.84825 7.68111 8.81336L8.82081 7.67366C9.8557 6.63877 9.85569 4.96088 8.82081 3.926L7.68111 2.7863ZM4.85268 3.70554C5.37989 3.17833 6.23466 3.17833 6.76187 3.70554L7.90157 4.84523C8.42878 5.37244 8.42878 6.22722 7.90157 6.75442L6.76187 7.89412C6.23466 8.42133 5.37989 8.42133 4.85268 7.89412L3.71298 6.75442C3.18578 6.22722 3.18578 5.37244 3.71298 4.84524L4.85268 3.70554ZM13.8199 2.34393C12.3563 2.34393 11.1699 3.53037 11.1699 4.99393V6.6057C11.1699 8.06926 12.3563 9.2557 13.8199 9.2557H15.4316C16.8952 9.2557 18.0816 8.06925 18.0816 6.6057V4.99393C18.0816 3.53037 16.8952 2.34393 15.4316 2.34393H13.8199ZM12.4699 4.99393C12.4699 4.24834 13.0743 3.64393 13.8199 3.64393H15.4316C16.1772 3.64393 16.7816 4.24834 16.7816 4.99393V6.6057C16.7816 7.35129 16.1772 7.9557 15.4316 7.9557H13.8199C13.0743 7.9557 12.4699 7.35129 12.4699 6.6057V4.99393ZM11.1699 13.8126C11.1699 12.349 12.3563 11.1626 13.8199 11.1626H15.4316C16.8952 11.1626 18.0816 12.349 18.0816 13.8126V15.4243C18.0816 16.8879 16.8952 18.0743 15.4316 18.0743H13.8199C12.3563 18.0743 11.1699 16.8879 11.1699 15.4243V13.8126ZM13.8199 12.4626C13.0743 12.4626 12.4699 13.067 12.4699 13.8126V15.4243C12.4699 16.1699 13.0743 16.7743 13.8199 16.7743H15.4316C16.1772 16.7743 16.7816 16.1699 16.7816 15.4243V13.8126C16.7816 13.067 16.1772 12.4626 15.4316 12.4626H13.8199ZM5.00139 11.1626C3.53784 11.1626 2.35139 12.349 2.35139 13.8126V15.4243C2.35139 16.8879 3.53784 18.0743 5.0014 18.0743H6.61317C8.07673 18.0743 9.26317 16.8879 9.26317 15.4243V13.8126C9.26317 12.349 8.07672 11.1626 6.61317 11.1626H5.00139ZM3.65139 13.8126C3.65139 13.067 4.25581 12.4626 5.00139 12.4626H6.61317C7.35875 12.4626 7.96317 13.067 7.96317 13.8126V15.4243C7.96317 16.1699 7.35875 16.7743 6.61317 16.7743H5.0014C4.25581 16.7743 3.65139 16.1699 3.65139 15.4243V13.8126Z" fill="white"/>
</svg>
