<svg width="20" height="20" viewBox="0 0 20 20" fill="none" xmlns="http://www.w3.org/2000/svg">
<g clip-path="url(#clip0_124_1047)">
<path fill-rule="evenodd" clip-rule="evenodd" d="M8.24908 3.40202C10.547 3.04318 12.8867 3.04318 15.1847 3.40202C15.9564 3.52253 16.5529 4.14308 16.6428 4.91893L16.7892 6.18214C17.0933 8.80544 17.0933 11.4551 16.7892 14.0784L16.6428 15.3416C16.5529 16.1174 15.9564 16.738 15.1847 16.8585C12.8867 17.2173 10.547 17.2173 8.24908 16.8585C7.47738 16.738 6.88089 16.1174 6.79096 15.3416L6.58607 13.5738C6.55005 13.263 6.26893 13.0403 5.95817 13.0763C5.64741 13.1123 5.42469 13.3935 5.46071 13.7042L5.66561 15.472C5.81415 16.7537 6.79951 17.7788 8.07428 17.9778C10.4881 18.3548 12.9457 18.3548 15.3595 17.9778C16.6343 17.7788 17.6196 16.7537 17.7682 15.472L17.9146 14.2088C18.2287 11.4988 18.2287 8.76167 17.9146 6.05171L17.7682 4.7885C17.6196 3.50685 16.6343 2.48177 15.3595 2.2827C12.9457 1.90577 10.4881 1.90577 8.07428 2.2827C6.79951 2.48177 5.81415 3.50685 5.66561 4.7885L5.46071 6.5563C5.42469 6.86706 5.64741 7.14818 5.95817 7.18419C6.26893 7.22021 6.55005 6.99749 6.58607 6.68673L6.79096 4.91893C6.88089 4.14308 7.47738 3.52253 8.24908 3.40202ZM2.78027 7.16603C3.00148 6.94482 3.36013 6.94482 3.58134 7.16603C3.80255 7.38724 3.80255 7.74589 3.58134 7.9671L1.93396 9.61448H10.5882C10.901 9.61448 11.1546 9.86809 11.1546 10.1809C11.1546 10.4938 10.901 10.7474 10.5882 10.7474H1.93396L3.58134 12.3947C3.80255 12.616 3.80255 12.9746 3.58134 13.1958C3.36013 13.417 3.00148 13.417 2.78027 13.1958L0.165908 10.5815C-0.0553025 10.3603 -0.0553025 10.0016 0.165908 9.78039L2.78027 7.16603Z" fill="url(#paint0_linear_124_1047)"/>
</g>
<defs>
<linearGradient id="paint0_linear_124_1047" x1="9.07507" y1="2" x2="21.7794" y2="7.05445" gradientUnits="userSpaceOnUse">
<stop stop-color="#9C77F5"/>
<stop offset="1" stop-color="#7751F1"/>
</linearGradient>
<clipPath id="clip0_124_1047">
<rect width="20" height="20" fill="white"/>
</clipPath>
</defs>
</svg>
