<svg width="19" height="22" viewBox="0 0 19 22" fill="none" xmlns="http://www.w3.org/2000/svg">
<path fill-rule="evenodd" clip-rule="evenodd" d="M10.6106 19.743C14.3547 17.9005 17.3542 13.7115 17.3542 9.74414C17.3542 5.28935 13.8635 1.75995 9.65705 1.75995C5.45059 1.75995 1.9599 5.28935 1.9599 9.74414C1.9599 13.8109 4.68444 17.9856 8.63694 19.7718C9.26906 20.0575 9.99483 20.0461 10.6106 19.743ZM11.2994 21.1427C15.4725 19.0891 18.9142 14.414 18.9142 9.74414C18.9142 4.47303 14.7696 0.199951 9.65705 0.199951C4.54447 0.199951 0.399902 4.47303 0.399902 9.74414C0.399902 14.4529 3.51029 19.1669 7.99449 21.1934C9.048 21.6695 10.2621 21.6532 11.2994 21.1427Z" fill="white"/>
</svg>
