<svg width="20" height="20" viewBox="0 0 20 20" fill="none" xmlns="http://www.w3.org/2000/svg">
<path fill-rule="evenodd" clip-rule="evenodd" d="M14.2174 2.5747C11.676 2.17783 9.08834 2.17783 6.54692 2.5747C5.70287 2.70651 5.05044 3.38524 4.95209 4.23384L4.79931 5.55272C4.46315 8.50805 4.46315 11.492 4.79931 14.4473L4.95209 15.7662C5.05044 16.6148 5.70287 17.2935 6.54692 17.4253C9.08834 17.8222 11.676 17.8222 14.2174 17.4253C15.0614 17.2935 15.7139 16.6148 15.8122 15.7662L15.965 14.4473C16.3012 11.492 16.3012 8.50805 15.965 5.55272L15.8122 4.23384C15.7139 3.38524 15.0614 2.70651 14.2174 2.5747ZM6.34634 1.29027C9.02068 0.872645 11.7436 0.872645 14.418 1.29027C15.8393 1.51222 16.938 2.65517 17.1036 4.08417L17.2567 5.4058C17.6039 8.45876 17.6039 11.5413 17.2567 14.5942L17.1036 15.9159C16.938 17.3449 15.8393 18.4878 14.418 18.7098C11.7436 19.1274 9.02068 19.1274 6.34634 18.7098C4.925 18.4878 3.82636 17.3449 3.66073 15.9159L3.50764 14.5942C3.16038 11.5413 3.16038 8.45876 3.50764 5.4058L3.66073 4.08417C3.82636 2.65517 4.925 1.51222 6.34634 1.29027ZM11.8292 14.3411C11.8292 15.1402 11.1814 15.7881 10.3822 15.7881C9.58303 15.7881 8.93518 15.1402 8.93518 14.3411C8.93518 13.5419 9.58303 12.894 10.3822 12.894C11.1814 12.894 11.8292 13.5419 11.8292 14.3411ZM7.97043 4.04431C7.61145 4.04431 7.32043 4.33533 7.32043 4.69431C7.32043 5.0533 7.61145 5.34431 7.97043 5.34431H12.7938C13.1528 5.34431 13.4438 5.0533 13.4438 4.69431C13.4438 4.33533 13.1528 4.04431 12.7938 4.04431H7.97043Z" fill="white"/>
</svg>
