<svg width="20" height="20" viewBox="0 0 20 20" fill="none" xmlns="http://www.w3.org/2000/svg">
<path fill-rule="evenodd" clip-rule="evenodd" d="M3.14775 12.1213C2.76644 9.57042 2.76644 6.97706 3.14775 4.42622C3.28197 3.5284 3.99931 2.83079 4.90052 2.72167L5.80449 2.61222C8.83677 2.24508 11.9023 2.24508 14.9346 2.61222L15.8385 2.72167C16.7397 2.83079 17.4571 3.5284 17.5913 4.42622C17.9726 6.97706 17.9726 9.57042 17.5913 12.1213C17.4571 13.0191 16.7397 13.7167 15.8385 13.8258L14.9346 13.9353C11.9023 14.3024 8.83677 14.3024 5.80449 13.9353L4.90052 13.8258C3.99931 13.7167 3.28197 13.0191 3.14775 12.1213ZM1.86204 4.23402C1.46168 6.91229 1.46168 9.63519 1.86204 12.3135C2.08274 13.7898 3.26232 14.937 4.74426 15.1164L5.64823 15.2258C8.78431 15.6055 11.9547 15.6055 15.0908 15.2258L15.9948 15.1164C17.4767 14.9369 18.6563 13.7898 18.877 12.3135C19.2774 9.63519 19.2774 6.91229 18.877 4.23402C18.6563 2.75766 17.4767 1.61053 15.9948 1.4311L15.0908 1.32165C11.9547 0.941937 8.78431 0.941938 5.64823 1.32165L4.74426 1.4311C3.26232 1.61053 2.08274 2.75766 1.86204 4.23402ZM4.02894 17.663C3.66995 17.663 3.37894 17.954 3.37894 18.313C3.37894 18.672 3.66995 18.963 4.02894 18.963H16.7102C17.0691 18.963 17.3602 18.672 17.3602 18.313C17.3602 17.954 17.0691 17.663 16.7102 17.663H4.02894Z" fill="white"/>
</svg>
