<svg width="24" height="24" viewBox="0 0 24 24" fill="none" xmlns="http://www.w3.org/2000/svg">
<path fill-rule="evenodd" clip-rule="evenodd" d="M19.893 8.82822C19.893 12.8123 16.8387 16.083 12.9439 16.4267L12.9439 21.3679C12.9439 21.3777 12.9437 21.3875 12.9433 21.3971H14.3257C14.6847 21.3971 14.9757 21.6882 14.9757 22.0471C14.9757 22.4061 14.6847 22.6971 14.3257 22.6971H9.69297C9.33398 22.6971 9.04297 22.4061 9.04297 22.0471C9.04297 21.6882 9.33398 21.3971 9.69297 21.3971H11.5861C11.5857 21.3875 11.5855 21.3777 11.5855 21.3679L11.5855 16.4267C7.6907 16.083 4.63647 12.8123 4.63647 8.82822C4.63647 4.61524 8.05177 1.19995 12.2647 1.19995C16.4777 1.19995 19.893 4.61524 19.893 8.82822ZM18.5345 8.82822C18.5345 12.2909 15.7275 15.098 12.2647 15.098C8.80202 15.098 5.99493 12.2909 5.99493 8.82822C5.99493 5.3655 8.80202 2.55841 12.2647 2.55841C15.7275 2.55841 18.5345 5.3655 18.5345 8.82822ZM13.6109 9.49718C13.3633 9.77896 13.3909 10.2081 13.6727 10.4558C13.9545 10.7034 14.3837 10.6757 14.6313 10.3939C14.9886 9.98736 15.2077 9.24665 15.1346 8.51203C15.0556 7.71937 14.6338 6.87287 13.6381 6.32292C13.3098 6.14154 12.8966 6.2607 12.7152 6.58906C12.5338 6.91743 12.653 7.33066 12.9813 7.51203C13.5532 7.82791 13.7443 8.2596 13.7828 8.64661C13.8271 9.09166 13.6681 9.43208 13.6109 9.49718Z" fill="white"/>
</svg>
