<svg width="24" height="24" viewBox="0 0 24 24" fill="none" xmlns="http://www.w3.org/2000/svg">
<path fill-rule="evenodd" clip-rule="evenodd" d="M12.6798 15.9483C16.4559 15.6192 19.4182 12.4497 19.4182 8.58823C19.4182 4.5078 16.1103 1.19995 12.0299 1.19995C7.94945 1.19995 4.6416 4.5078 4.6416 8.58823C4.6416 12.4496 7.60385 15.6192 11.3798 15.9483L11.3798 21.254C11.3798 21.3032 11.3853 21.3511 11.3957 21.3971H9.68466C9.32568 21.3971 9.03466 21.6882 9.03466 22.0471C9.03466 22.4061 9.32568 22.6971 9.68466 22.6971H14.3174C14.6764 22.6971 14.9674 22.4061 14.9674 22.0471C14.9674 21.6882 14.6764 21.3971 14.3174 21.3971H12.664C12.6744 21.3511 12.6798 21.3032 12.6798 21.254L12.6798 15.9483ZM13.4758 10.205C13.2061 9.96803 13.1796 9.55733 13.4166 9.28768C13.4824 9.21286 13.6445 8.85839 13.599 8.40119C13.559 7.99953 13.3599 7.55248 12.7711 7.22722C12.4568 7.05365 12.3428 6.6582 12.5164 6.34397C12.6899 6.02974 13.0854 5.91571 13.3996 6.08928C14.394 6.63854 14.814 7.48254 14.8926 8.2724C14.9657 9.00672 14.7461 9.74424 14.3931 10.1459C14.1561 10.4155 13.7454 10.442 13.4758 10.205Z" fill="url(#paint0_linear_57_201)"/>
<defs>
<linearGradient id="paint0_linear_57_201" x1="12.0299" y1="1.19995" x2="23.3316" y2="3.96889" gradientUnits="userSpaceOnUse">
<stop stop-color="#9C77F5"/>
<stop offset="1" stop-color="#7751F1"/>
</linearGradient>
</defs>
</svg>
