<svg width="24" height="24" viewBox="0 0 24 24" fill="none" xmlns="http://www.w3.org/2000/svg">
<path fill-rule="evenodd" clip-rule="evenodd" d="M14.4 2.58571C12.9149 1.72827 11.0852 1.72827 9.60005 2.58571L5.04697 5.21442C3.56185 6.07186 2.64697 7.65647 2.64697 9.37135V14.6288C2.64697 16.3437 3.56185 17.9283 5.04697 18.7857L9.60005 21.4144C11.0852 22.2719 12.9149 22.2719 14.4 21.4144L18.9531 18.7857C20.4382 17.9283 21.3531 16.3437 21.3531 14.6288V9.37135C21.3531 7.65647 20.4382 6.07186 18.9531 5.21442L14.4 2.58571ZM12 14.4001C13.3255 14.4001 14.4 13.3255 14.4 12.0001C14.4 10.6746 13.3255 9.60006 12 9.60006C10.6746 9.60006 9.60005 10.6746 9.60005 12.0001C9.60005 13.3255 10.6746 14.4001 12 14.4001Z" fill="url(#paint0_linear_57_203)"/>
<defs>
<linearGradient id="paint0_linear_57_203" x1="12" y1="1.94262" x2="25.6647" y2="6.47205" gradientUnits="userSpaceOnUse">
<stop stop-color="#9C77F5"/>
<stop offset="1" stop-color="#7751F1"/>
</linearGradient>
</defs>
</svg>
