<svg width="24" height="24" viewBox="0 0 24 24" fill="none" xmlns="http://www.w3.org/2000/svg">
<path fill-rule="evenodd" clip-rule="evenodd" d="M14.3249 1.79168C12.8862 0.96104 11.1136 0.961041 9.6749 1.79168L4.32183 4.88228C2.88311 5.71292 1.99683 7.24802 1.99683 8.9093V15.0905C1.99683 16.7518 2.88311 18.2869 4.32183 19.1175L9.6749 22.2081C11.1136 23.0388 12.8862 23.0388 14.3249 22.2081L19.678 19.1175C21.1167 18.2869 22.003 16.7518 22.003 15.0905V8.9093C22.003 7.24801 21.1167 5.71292 19.678 4.88228L14.3249 1.79168ZM10.3249 2.91752C11.3614 2.3191 12.6384 2.3191 13.6749 2.91752L19.028 6.00811C20.0645 6.60653 20.703 7.71246 20.703 8.9093V15.0905C20.703 16.2873 20.0645 17.3933 19.028 17.9917L13.6749 21.0823C12.6384 21.6807 11.3614 21.6807 10.3249 21.0823L4.97183 17.9917C3.93533 17.3933 3.29683 16.2873 3.29683 15.0905V8.9093C3.29683 7.71246 3.93533 6.60653 4.97183 6.00811L10.3249 2.91752ZM14.2999 11.9999C14.2999 13.2702 13.2702 14.2999 11.9999 14.2999C10.7296 14.2999 9.6999 13.2702 9.6999 11.9999C9.6999 10.7296 10.7296 9.6999 11.9999 9.6999C13.2702 9.6999 14.2999 10.7296 14.2999 11.9999ZM15.5999 11.9999C15.5999 13.9881 13.9881 15.5999 11.9999 15.5999C10.0117 15.5999 8.3999 13.9881 8.3999 11.9999C8.3999 10.0117 10.0117 8.3999 11.9999 8.3999C13.9881 8.3999 15.5999 10.0117 15.5999 11.9999Z" fill="white"/>
</svg>
