<svg width="21" height="22" viewBox="0 0 21 22" fill="none" xmlns="http://www.w3.org/2000/svg">
<path fill-rule="evenodd" clip-rule="evenodd" d="M14.2491 1.63231C12.0893 -0.277505 8.84462 -0.2775 6.68484 1.63232L2.80074 5.06688C0.804561 6.83203 -0.180766 9.47583 0.173254 12.1169L0.807566 16.849C1.18755 19.6837 3.60637 21.7999 6.46648 21.7999H14.4675C17.3276 21.7999 19.7464 19.6837 20.1264 16.849L20.7607 12.1169C21.1147 9.47583 20.1294 6.83203 18.1332 5.06688L14.2491 1.63231ZM7.04126 14.6743C6.63134 14.6743 6.29902 15.0066 6.29902 15.4165C6.29902 15.8264 6.63134 16.1587 7.04126 16.1587H13.8927C14.3026 16.1587 14.6349 15.8264 14.6349 15.4165C14.6349 15.0066 14.3026 14.6743 13.8927 14.6743H7.04126Z" fill="url(#paint0_linear_389_341)"/>
<defs>
<linearGradient id="paint0_linear_389_341" x1="10.467" y1="0.199948" x2="25.5128" y2="5.34663" gradientUnits="userSpaceOnUse">
<stop stop-color="#9C77F5"/>
<stop offset="1" stop-color="#7751F1"/>
</linearGradient>
</defs>
</svg>
