<svg width="19" height="22" viewBox="0 0 19 22" fill="none" xmlns="http://www.w3.org/2000/svg">
<path fill-rule="evenodd" clip-rule="evenodd" d="M11.2994 21.1427C15.4725 19.0891 18.9142 14.414 18.9142 9.74414C18.9142 4.47303 14.7696 0.199951 9.65705 0.199951C4.54447 0.199951 0.399902 4.47303 0.399902 9.74414C0.399902 14.4529 3.51029 19.1669 7.99449 21.1934C9.048 21.6695 10.2621 21.6532 11.2994 21.1427ZM9.3999 12.2C11.0568 12.2 12.3999 10.8568 12.3999 9.19995C12.3999 7.5431 11.0568 6.19995 9.3999 6.19995C7.74305 6.19995 6.3999 7.5431 6.3999 9.19995C6.3999 10.8568 7.74305 12.2 9.3999 12.2Z" fill="url(#paint0_linear_54_130)"/>
<defs>
<linearGradient id="paint0_linear_54_130" x1="9.65705" y1="0.199948" x2="23.3572" y2="4.43684" gradientUnits="userSpaceOnUse">
<stop stop-color="#9C77F5"/>
<stop offset="1" stop-color="#7751F1"/>
</linearGradient>
</defs>
</svg>
