<svg width="24" height="24" viewBox="0 0 24 24" fill="none" xmlns="http://www.w3.org/2000/svg">
<path fill-rule="evenodd" clip-rule="evenodd" d="M18.7749 7.17894L14.8908 3.74437C13.2925 2.33111 10.8914 2.33111 9.2932 3.74438L5.4091 7.17894C3.78364 8.61627 2.9813 10.7691 3.26957 12.9197L3.90388 17.6517C4.18507 19.7495 5.975 21.3155 8.09148 21.3155H16.0925C18.209 21.3155 19.9989 19.7495 20.2801 17.6517L20.9144 12.9197C21.2027 10.7691 20.4003 8.61628 18.7749 7.17894ZM15.8741 2.63231C13.7143 0.722495 10.4696 0.7225 8.30984 2.63232L4.42574 6.06688C2.42956 7.83203 1.44423 10.4758 1.79825 13.1169L2.43257 17.849C2.81255 20.6837 5.23137 22.7999 8.09148 22.7999H16.0925C18.9526 22.7999 21.3714 20.6837 21.7514 17.849L22.3857 13.1169C22.7397 10.4758 21.7544 7.83203 19.7582 6.06688L15.8741 2.63231Z" fill="white"/>
<path fill-rule="evenodd" clip-rule="evenodd" d="M7.92407 16.4166C7.92407 16.0066 8.25638 15.6743 8.66631 15.6743H15.5177C15.9277 15.6743 16.26 16.0066 16.26 16.4166C16.26 16.8265 15.9277 17.1588 15.5177 17.1588H8.66631C8.25638 17.1588 7.92407 16.8265 7.92407 16.4166Z" fill="white"/>
</svg>
